<svg width="205" height="97" viewBox="0 0 205 97" fill="none" xmlns="http://www.w3.org/2000/svg">
<rect x="115.243" y="3.43009" width="41.57" height="84.4802" rx="20.785" transform="rotate(42.2799 115.243 3.43009)" fill="url(#paint0_linear_3101_2268)" stroke="#1A3E32" stroke-width="3.5"/>
<path d="M160.176 79.1714C160.086 79.1714 160.046 79.1574 160.034 79.1528C160.025 79.1493 160.007 79.1408 159.974 79.1079C159.941 79.0749 159.932 79.0563 159.929 79.0474C159.924 79.0363 159.91 78.996 159.91 78.9058L159.91 63.353C159.91 62.7124 160.074 62.3947 160.236 62.2124L160.245 62.2017C160.594 61.8026 160.946 61.5041 161.296 61.2856L161.341 61.2563L161.385 61.2251C161.601 61.0705 161.769 60.9549 161.891 60.8735C161.952 60.8329 161.995 60.805 162.023 60.7876C162.031 60.7832 162.036 60.7809 162.04 60.7788L162.091 60.7524L162.163 60.7065L178.963 50.147L181.32 48.6655L178.963 47.1841L162.163 36.6235L162.091 36.5786L162.015 36.5405C162.044 36.5553 162.044 36.5571 161.994 36.5269C161.952 36.5016 161.892 36.4639 161.812 36.4126C161.651 36.3102 161.43 36.1659 161.146 35.977L161.112 35.9546L161.076 35.9331C160.664 35.6857 160.418 35.4166 160.266 35.1431L160.231 35.0815L160.192 35.0229C160.021 34.7654 159.91 34.4388 159.91 33.977L159.91 18.4253C159.91 18.3355 159.924 18.2951 159.929 18.2837C159.932 18.2748 159.941 18.2561 159.974 18.2231C160.007 18.1901 160.025 18.1818 160.034 18.1782C160.046 18.1737 160.086 18.1597 160.176 18.1597C160.247 18.1597 160.286 18.1727 160.323 18.1938L200.605 44.0894L200.615 44.0952L200.624 44.1011L200.961 44.3179C201.662 44.7841 202.095 45.1715 202.337 45.4653C202.468 45.6865 202.586 46.0487 202.586 46.6489L202.586 50.6812C202.586 51.2835 202.467 51.6466 202.336 51.8677C202.057 52.2057 201.525 52.6661 200.624 53.229L200.615 53.2349L200.605 53.2417L160.328 79.1343C160.289 79.1571 160.25 79.1714 160.176 79.1714Z" fill="#61CD88" stroke="#1A3E32" stroke-width="3.5"/>
<path d="M44.2314 18.1592C44.3211 18.1592 44.3616 18.1732 44.373 18.1777C44.382 18.1813 44.4006 18.1897 44.4336 18.2227C44.4666 18.2557 44.4749 18.2743 44.4785 18.2832C44.4829 18.2943 44.497 18.3346 44.4971 18.4248V33.9775C44.497 34.6181 44.333 34.9358 44.1709 35.1182L44.1621 35.1289C43.813 35.5279 43.4608 35.8265 43.1113 36.0449L43.0664 36.0742L43.0225 36.1055C42.806 36.2601 42.6386 36.3757 42.5166 36.457C42.4556 36.4977 42.412 36.5256 42.3838 36.543C42.3766 36.5474 42.3707 36.5496 42.3672 36.5518L42.3164 36.5781L42.2441 36.624L25.4443 47.1836L23.0869 48.665L25.4443 50.1465L42.2441 60.707L42.3164 60.752L42.3926 60.79C42.363 60.7752 42.3627 60.7735 42.4131 60.8037C42.4552 60.829 42.5151 60.8667 42.5957 60.918C42.7567 61.0204 42.9774 61.1646 43.2607 61.3535L43.2949 61.376L43.3311 61.3975C43.7434 61.6449 43.9896 61.9139 44.1416 62.1875L44.1758 62.249L44.2148 62.3076C44.3865 62.5651 44.4971 62.8917 44.4971 63.3535V78.9053C44.4971 78.995 44.4831 79.0354 44.4785 79.0469C44.4749 79.0558 44.4666 79.0744 44.4336 79.1074C44.4006 79.1405 44.382 79.1488 44.373 79.1523C44.3617 79.1569 44.3214 79.1709 44.2314 79.1709C44.1601 79.1709 44.1212 79.1578 44.084 79.1367L3.80176 53.2412L3.79199 53.2354L3.7832 53.2295L3.44629 53.0127C2.7451 52.5465 2.31256 52.159 2.07031 51.8652C1.93964 51.644 1.82135 51.2819 1.82129 50.6816V46.6494C1.82129 46.047 1.94009 45.684 2.07129 45.4629C2.35053 45.1249 2.88256 44.6645 3.7832 44.1016L3.79199 44.0957L3.80176 44.0889L44.0791 18.1963C44.1179 18.1735 44.157 18.1592 44.2314 18.1592Z" fill="#61CD88" stroke="#1A3E32" stroke-width="3.5"/>
<defs>
<linearGradient id="paint0_linear_3101_2268" x1="133.741" y1="88.9382" x2="129.699" y2="1.5073" gradientUnits="userSpaceOnUse">
<stop offset="0.5" stop-color="#60CD88"/>
<stop offset="0.5" stop-color="white"/>
</linearGradient>
</defs>
</svg>
